# xmcd
#
# Track frame offsets: 
#        150
#        40287
#        64036
#        86637
#        134133
#        159348
#        189780
#        217140
#        246955
#        276499
#        307988
#        344746
#
# Disc length: 4961 seconds
#
# Revision: 0
# Processed by: cddbd v1.5.2PL0 Copyright (c) Steve Scherf et al.
# Submitted via: ExactAudioCopy v1.0b6
#
DISCID=ba135f0c
DTITLE=Jackie McLean - Complete Albums Collection 1955-1958 (2016)
DYEAR=1956
DGENRE=Jazz Sax Alto
TTITLE0=Sentimental Journey
TTITLE1=Why Was I Born?
TTITLE2=Contour
TTITLE3=Confirmation
TTITLE4=When I Fall In Love
TTITLE5=Abstraction
TTITLE6=Sweet Doll
TTITLE7=Just For Marty
TTITLE8=Dee's Delimma
TTITLE9=SuBlues
TTITLE10=Steeplechase
TTITLE11=It Could Happen To You
EXTD=
EXTT0=
EXTT1=
EXTT2=
EXTT3=
EXTT4=
EXTT5=
EXTT6=
EXTT7=
EXTT8=
EXTT9=
EXTT10=
EXTT11=
PLAYORDER=
